<?xml version="1.0" encoding="UTF-8" standalone="no"?>
<svg
   xmlns:dc="http://purl.org/dc/elements/1.1/"
   xmlns:cc="http://creativecommons.org/ns#"
   xmlns:rdf="http://www.w3.org/1999/02/22-rdf-syntax-ns#"
   xmlns:svg="http://www.w3.org/2000/svg"
   xmlns="http://www.w3.org/2000/svg"
   xmlns:sodipodi="http://sodipodi.sourceforge.net/DTD/sodipodi-0.dtd"
   xmlns:inkscape="http://www.inkscape.org/namespaces/inkscape"
   viewBox="328 355 335 276"
   id="svg3062"
   version="1.1"
   inkscape:version="0.48.4 r9939"
   width="100%"
   height="100%"
   sodipodi:docname="text_logo.svg">
  <metadata
     id="metadata3070">
    <rdf:RDF>
      <cc:Work
         rdf:about="">
        <dc:format>image/svg+xml</dc:format>
        <dc:type
           rdf:resource="http://purl.org/dc/dcmitype/StillImage" />
        <dc:title></dc:title>
      </cc:Work>
    </rdf:RDF>
  </metadata>
  <defs
     id="defs3068" />
  <sodipodi:namedview
     pagecolor="#ffffff"
     bordercolor="#666666"
     borderopacity="1"
     objecttolerance="10"
     gridtolerance="10"
     guidetolerance="10"
     inkscape:pageopacity="0"
     inkscape:pageshadow="2"
     inkscape:window-width="1535"
     inkscape:window-height="876"
     id="namedview3066"
     showgrid="false"
     inkscape:zoom="1.2092551"
     inkscape:cx="214.27966"
     inkscape:cy="278.33898"
     inkscape:window-x="65"
     inkscape:window-y="24"
     inkscape:window-maximized="1"
     inkscape:current-layer="svg3062" />
  <rect
     style="fill:#ffffff;stroke:none;display:inline"
     id="rect4101"
     width="122.96607"
     height="197.57562"
     x="423.703"
     y="418.33786" />
  <path
     inkscape:connector-curvature="0"
     style="fill:#000000;fill-opacity:1;stroke:none;display:inline"
     d="m 547.85799,355.78114 c -2.9971,0 -5.47074,3.12764 -5.47074,7.00992 l 0,46.67464 c -3.78216,-2.1308 -8.07972,-3.24842 -12.48116,-3.24842 l -88.2207,0 c -17.10216,0 -30.77454,17.70022 -30.77454,39.83594 l 0,143.78566 c 0,22.136 13.67238,40.00716 30.77454,40.00716 l 88.2207,0 c 17.10222,0 30.94576,-17.87116 30.94576,-40.00716 l 0,-143.78566 c 0,-1.86436 -0.1476,-3.676 -0.33926,-5.47102 l 0,-77.79114 c 0,-3.88232 -2.3035,-7.00998 -5.30044,-7.00998 l -7.35144,0 z m -92.66582,66.84912 62.40398,0 c 14.45736,0 26.15874,7.27668 26.15874,16.24258 l 0,56.93288 c 0,8.96526 -11.7012,16.24208 -26.15874,16.24208 l -62.40398,0 c -14.4569,0 -25.98716,-7.27682 -25.98716,-16.24208 l 0,-56.933 c 0,-8.96582 11.53026,-16.24246 25.98716,-16.24246 z m -24.96158,100.01738 27.01328,0 c 1.6082,0 2.9075,2.35822 2.90626,5.3003 l 0,7.3519 c 0,2.94196 -1.29806,5.2999 -2.90626,5.2999 l -27.01328,0 c -1.60764,0 -2.9067,-2.35794 -2.9067,-5.2999 l 0,-7.3519 c 0,-2.94208 1.29906,-5.3003 2.9067,-5.3003 z m 42.0589,0 27.01328,0 c 1.60836,0 2.90674,2.35822 2.90674,5.3003 l 0,7.3519 c 0,2.94196 -1.29838,5.2999 -2.90674,5.2999 l -27.01328,0 c -1.6084,0 -2.90762,-2.35794 -2.90622,-5.2999 l 0,-7.3519 c 0,-2.94208 1.29782,-5.3003 2.90622,-5.3003 z m 42.05836,0 27.0132,0 c 1.6082,0 2.9077,2.35822 2.90634,5.3003 l 0,7.3519 c 0,2.94196 -1.29814,5.2999 -2.90634,5.2999 l -27.0132,0 c -1.60764,0 -2.9054,-2.35794 -2.9066,-5.2999 l 0,-7.3519 c 0,-2.94208 1.29896,-5.3003 2.9066,-5.3003 z m -84.11726,22.73918 27.01328,0 c 1.6082,0 2.9075,2.35832 2.90626,5.30028 l 0,7.35168 c 0,2.94196 -1.29806,5.29992 -2.90626,5.29992 l -27.01328,0 c -1.60764,0 -2.9067,-2.35798 -2.9067,-5.29992 l 0,-7.35168 c 0,-2.94196 1.29906,-5.30028 2.9067,-5.30028 z m 42.0589,0 27.01328,0 c 1.60836,0 2.90674,2.35832 2.90674,5.30028 l 0,7.35168 c 0,2.94196 -1.29838,5.29992 -2.90674,5.29992 l -27.01328,0 c -1.6084,0 -2.90762,-2.35798 -2.90622,-5.29992 l 0,-7.35168 c 0,-2.94196 1.29782,-5.30028 2.90622,-5.30028 z m 42.05836,0 27.0132,0 c 1.6082,0 2.9077,2.35832 2.90634,5.30028 l 0,7.35168 c 0,2.94196 -1.29814,5.29992 -2.90634,5.29992 l -27.0132,0 c -1.60764,0 -2.9054,-2.35798 -2.9066,-5.29992 l 0,-7.35168 c 0,-2.94196 1.29896,-5.30028 2.9066,-5.30028 z m -84.11726,22.91012 27.01328,0 c 1.6082,0 2.9075,2.35806 2.90626,5.29994 l 0,7.18084 c 0,2.94194 -1.29806,5.47082 -2.90626,5.47082 l -27.01328,0 c -1.60764,0 -2.9067,-2.52888 -2.9067,-5.47082 l 0,-7.18084 c 0,-2.94188 1.29906,-5.29994 2.9067,-5.29994 z m 42.0589,0 27.01328,0 c 1.60836,0 2.90674,2.35806 2.90674,5.29994 l 0,7.18084 c 0,2.94194 -1.29838,5.47082 -2.90674,5.47082 l -27.01328,0 c -1.6084,0 -2.90762,-2.52888 -2.90622,-5.47082 l 0,-7.18084 c 0,-2.94188 1.29782,-5.29994 2.90622,-5.29994 z m 42.05836,0 27.0132,0 c 1.6082,0 2.9077,2.35806 2.90634,5.29994 l 0,7.18084 c 0,2.94194 -1.29814,5.47082 -2.90634,5.47082 l -27.0132,0 c -1.60764,0 -2.9054,-2.52888 -2.9066,-5.47082 l 0,-7.18084 c 0,-2.94188 1.29896,-5.29994 2.9066,-5.29994 z m -84.11726,22.73896 27.01328,0 c 1.6082,0 2.9075,2.35804 2.90626,5.29992 l 0,7.35168 c 0,2.94194 -1.29806,5.30006 -2.90626,5.30006 l -27.01328,0 c -1.60764,0 -2.9067,-2.35812 -2.9067,-5.30006 l 0,-7.35168 c 0,-2.94188 1.29906,-5.29992 2.9067,-5.29992 z m 42.0589,0 27.01328,0 c 1.60836,0 2.90674,2.35804 2.90674,5.29992 l 0,7.35168 c 0,2.94194 -1.29838,5.30006 -2.90674,5.30006 l -27.01328,0 c -1.6084,0 -2.90762,-2.35812 -2.90622,-5.30006 l 0,-7.35168 c 0,-2.94188 1.29782,-5.29992 2.90622,-5.29992 z m 42.05836,0 27.0132,0 c 1.6082,0 2.9077,2.35804 2.90634,5.29992 l 0,7.35168 c 0,2.94194 -1.29814,5.30006 -2.90634,5.30006 l -27.0132,0 c -1.60764,0 -2.9054,-2.35812 -2.9066,-5.30006 l 0,-7.35168 c 0,-2.94188 1.29896,-5.29992 2.9066,-5.29992 z"
     id="path4038" />
</svg>
