<svg viewBox="328 355 335 276" xmlns="http://www.w3.org/2000/svg">
  <path
     d="m 601.96816,473.77107 a 145.5135,145.5135 0 0 1 -223.1207,130.5892 105.96362,105.96362 0 0 0 72.3838,-22.38666 52.235638,52.235638 0 0 1 -43.2811,-35.07266 52.235638,52.235638 0 0 0 23.13298,-1.4924 52.235638,52.235638 0 0 1 -42.53478,-49.25082 52.235638,52.235638 0 0 0 20.89437,3.73118 52.235638,52.235638 0 0 1 -13.43201,-67.16007 145.5135,145.5135 0 0 0 105.21726,53.72799 49.996972,49.996972 0 0 1 86.5622,-46.26596 87.308136,87.308136 0 0 0 32.08756,-12.68576 48.504542,48.504542 0 0 1 -23.13298,28.35658 87.308136,87.308136 0 0 0 29.1027,-8.20846 48.504542,48.504542 0 0 1 -23.8793,26.11784 z"/>
</svg>
